<mxfile host="app.diagrams.net" modified="2022-11-06T08:04:36.606Z" agent="5.0 (Windows NT 10.0; Win64; x64) AppleWebKit/537.36 (KHTML, like Gecko) Chrome/107.0.0.0 Safari/537.36" etag="QnZR4EloU1EG6dt89phF" version="20.5.2" type="github">
  <diagram id="KTM-LWQf02BC0tRsd1OR" name="Page-1">
    <mxGraphModel dx="1038" dy="579" grid="1" gridSize="10" guides="1" tooltips="1" connect="1" arrows="1" fold="1" page="1" pageScale="1" pageWidth="850" pageHeight="1100" math="0" shadow="0">
      <root>
        <mxCell id="0" />
        <mxCell id="1" parent="0" />
        <mxCell id="MqvOi7Ixa8ff-2-MyRss-15" value="" style="group;fontSize=14;" vertex="1" connectable="0" parent="1">
          <mxGeometry x="70" y="80" width="670" height="670" as="geometry" />
        </mxCell>
        <mxCell id="MqvOi7Ixa8ff-2-MyRss-2" value="" style="ellipse;html=1;shape=startState;fillColor=#000000;strokeColor=#ff0000;fontSize=14;" vertex="1" parent="MqvOi7Ixa8ff-2-MyRss-15">
          <mxGeometry x="10" y="50" width="30" height="30" as="geometry" />
        </mxCell>
        <mxCell id="MqvOi7Ixa8ff-2-MyRss-3" value="" style="edgeStyle=orthogonalEdgeStyle;html=1;verticalAlign=bottom;endArrow=open;endSize=8;strokeColor=#ff0000;rounded=0;fontSize=14;" edge="1" source="MqvOi7Ixa8ff-2-MyRss-2" parent="MqvOi7Ixa8ff-2-MyRss-15">
          <mxGeometry relative="1" as="geometry">
            <mxPoint x="120" y="65" as="targetPoint" />
          </mxGeometry>
        </mxCell>
        <mxCell id="MqvOi7Ixa8ff-2-MyRss-4" value="Off" style="rounded=0;whiteSpace=wrap;html=1;fontSize=14;" vertex="1" parent="MqvOi7Ixa8ff-2-MyRss-15">
          <mxGeometry x="120" y="47.5" width="90" height="35" as="geometry" />
        </mxCell>
        <mxCell id="MqvOi7Ixa8ff-2-MyRss-29" style="edgeStyle=orthogonalEdgeStyle;rounded=0;orthogonalLoop=1;jettySize=auto;html=1;entryX=0;entryY=0.25;entryDx=0;entryDy=0;strokeColor=#000000;fontSize=14;" edge="1" parent="MqvOi7Ixa8ff-2-MyRss-15" source="MqvOi7Ixa8ff-2-MyRss-8" target="MqvOi7Ixa8ff-2-MyRss-13">
          <mxGeometry relative="1" as="geometry">
            <Array as="points">
              <mxPoint x="220" y="209" />
              <mxPoint x="220" y="209" />
            </Array>
          </mxGeometry>
        </mxCell>
        <mxCell id="MqvOi7Ixa8ff-2-MyRss-8" value="LiDAR" style="swimlane;fontSize=14;" vertex="1" parent="MqvOi7Ixa8ff-2-MyRss-15">
          <mxGeometry x="-40" y="190" width="210" height="370" as="geometry" />
        </mxCell>
        <mxCell id="MqvOi7Ixa8ff-2-MyRss-43" value="" style="ellipse;html=1;shape=startState;fillColor=#000000;strokeColor=#ff0000;fontSize=14;" vertex="1" parent="MqvOi7Ixa8ff-2-MyRss-8">
          <mxGeometry x="80" y="30" width="30" height="30" as="geometry" />
        </mxCell>
        <mxCell id="MqvOi7Ixa8ff-2-MyRss-44" value="" style="edgeStyle=orthogonalEdgeStyle;html=1;verticalAlign=bottom;endArrow=open;endSize=8;strokeColor=#ff0000;rounded=0;elbow=vertical;fontSize=14;" edge="1" source="MqvOi7Ixa8ff-2-MyRss-43" parent="MqvOi7Ixa8ff-2-MyRss-8">
          <mxGeometry relative="1" as="geometry">
            <mxPoint x="95" y="120" as="targetPoint" />
          </mxGeometry>
        </mxCell>
        <mxCell id="MqvOi7Ixa8ff-2-MyRss-52" style="edgeStyle=orthogonalEdgeStyle;rounded=0;orthogonalLoop=1;jettySize=auto;html=1;entryX=0.5;entryY=0;entryDx=0;entryDy=0;strokeColor=#000000;elbow=vertical;fontSize=14;" edge="1" parent="MqvOi7Ixa8ff-2-MyRss-8" source="MqvOi7Ixa8ff-2-MyRss-45" target="MqvOi7Ixa8ff-2-MyRss-46">
          <mxGeometry relative="1" as="geometry" />
        </mxCell>
        <mxCell id="MqvOi7Ixa8ff-2-MyRss-45" value="Initiate" style="rounded=0;whiteSpace=wrap;html=1;fontSize=14;" vertex="1" parent="MqvOi7Ixa8ff-2-MyRss-8">
          <mxGeometry x="50" y="120" width="90" height="35" as="geometry" />
        </mxCell>
        <mxCell id="MqvOi7Ixa8ff-2-MyRss-53" style="edgeStyle=orthogonalEdgeStyle;rounded=0;orthogonalLoop=1;jettySize=auto;html=1;entryX=0.5;entryY=0;entryDx=0;entryDy=0;strokeColor=#000000;elbow=vertical;fontSize=14;" edge="1" parent="MqvOi7Ixa8ff-2-MyRss-8" source="MqvOi7Ixa8ff-2-MyRss-46" target="MqvOi7Ixa8ff-2-MyRss-47">
          <mxGeometry relative="1" as="geometry" />
        </mxCell>
        <mxCell id="MqvOi7Ixa8ff-2-MyRss-46" value="Captured" style="rounded=0;whiteSpace=wrap;html=1;fontSize=14;" vertex="1" parent="MqvOi7Ixa8ff-2-MyRss-8">
          <mxGeometry x="50" y="180" width="90" height="35" as="geometry" />
        </mxCell>
        <mxCell id="MqvOi7Ixa8ff-2-MyRss-54" style="edgeStyle=orthogonalEdgeStyle;rounded=0;orthogonalLoop=1;jettySize=auto;html=1;entryX=0.5;entryY=0;entryDx=0;entryDy=0;strokeColor=#000000;elbow=vertical;fontSize=14;" edge="1" parent="MqvOi7Ixa8ff-2-MyRss-8" source="MqvOi7Ixa8ff-2-MyRss-47" target="MqvOi7Ixa8ff-2-MyRss-49">
          <mxGeometry relative="1" as="geometry">
            <mxPoint x="95" y="300" as="targetPoint" />
          </mxGeometry>
        </mxCell>
        <mxCell id="MqvOi7Ixa8ff-2-MyRss-47" value="DB checked" style="rounded=0;whiteSpace=wrap;html=1;fontSize=14;" vertex="1" parent="MqvOi7Ixa8ff-2-MyRss-8">
          <mxGeometry x="50" y="240" width="90" height="35" as="geometry" />
        </mxCell>
        <mxCell id="MqvOi7Ixa8ff-2-MyRss-49" value="" style="ellipse;html=1;shape=endState;fillColor=#000000;strokeColor=#ff0000;fontSize=14;" vertex="1" parent="MqvOi7Ixa8ff-2-MyRss-8">
          <mxGeometry x="80" y="330" width="30" height="30" as="geometry" />
        </mxCell>
        <mxCell id="MqvOi7Ixa8ff-2-MyRss-82" value="&lt;font style=&quot;font-size: 12px;&quot;&gt;capture obstacle&lt;/font&gt;" style="text;html=1;align=center;verticalAlign=middle;resizable=0;points=[];autosize=1;strokeColor=none;fillColor=none;fontSize=14;" vertex="1" parent="MqvOi7Ixa8ff-2-MyRss-8">
          <mxGeometry x="90" y="150" width="110" height="30" as="geometry" />
        </mxCell>
        <mxCell id="MqvOi7Ixa8ff-2-MyRss-83" value="&lt;font style=&quot;font-size: 12px;&quot;&gt;check DB&lt;/font&gt;" style="text;html=1;align=center;verticalAlign=middle;resizable=0;points=[];autosize=1;strokeColor=none;fillColor=none;fontSize=14;" vertex="1" parent="MqvOi7Ixa8ff-2-MyRss-8">
          <mxGeometry x="90" y="215" width="70" height="30" as="geometry" />
        </mxCell>
        <mxCell id="MqvOi7Ixa8ff-2-MyRss-34" style="edgeStyle=orthogonalEdgeStyle;rounded=0;orthogonalLoop=1;jettySize=auto;html=1;entryX=1;entryY=0.75;entryDx=0;entryDy=0;strokeColor=#000000;fontSize=14;" edge="1" parent="MqvOi7Ixa8ff-2-MyRss-15" target="MqvOi7Ixa8ff-2-MyRss-13">
          <mxGeometry relative="1" as="geometry">
            <mxPoint x="480" y="226" as="sourcePoint" />
            <Array as="points">
              <mxPoint x="400" y="226" />
              <mxPoint x="400" y="226" />
            </Array>
          </mxGeometry>
        </mxCell>
        <mxCell id="MqvOi7Ixa8ff-2-MyRss-22" style="edgeStyle=orthogonalEdgeStyle;rounded=0;orthogonalLoop=1;jettySize=auto;html=1;exitX=0;exitY=0.5;exitDx=0;exitDy=0;entryX=1;entryY=0.5;entryDx=0;entryDy=0;strokeColor=#000000;fontSize=14;" edge="1" parent="MqvOi7Ixa8ff-2-MyRss-15" source="MqvOi7Ixa8ff-2-MyRss-11" target="MqvOi7Ixa8ff-2-MyRss-19">
          <mxGeometry relative="1" as="geometry">
            <Array as="points">
              <mxPoint x="120" y="145" />
            </Array>
          </mxGeometry>
        </mxCell>
        <mxCell id="MqvOi7Ixa8ff-2-MyRss-11" value="Stop" style="rounded=0;whiteSpace=wrap;html=1;fontSize=14;" vertex="1" parent="MqvOi7Ixa8ff-2-MyRss-15">
          <mxGeometry x="120" y="130" width="90" height="35" as="geometry" />
        </mxCell>
        <mxCell id="MqvOi7Ixa8ff-2-MyRss-12" value="Self test" style="rounded=0;whiteSpace=wrap;html=1;fontSize=14;" vertex="1" parent="MqvOi7Ixa8ff-2-MyRss-15">
          <mxGeometry x="360" y="47.5" width="90" height="35" as="geometry" />
        </mxCell>
        <mxCell id="MqvOi7Ixa8ff-2-MyRss-36" style="edgeStyle=orthogonalEdgeStyle;rounded=0;orthogonalLoop=1;jettySize=auto;html=1;strokeColor=#000000;fontSize=14;" edge="1" parent="MqvOi7Ixa8ff-2-MyRss-15" source="MqvOi7Ixa8ff-2-MyRss-13">
          <mxGeometry relative="1" as="geometry">
            <mxPoint x="170" y="230" as="targetPoint" />
            <Array as="points">
              <mxPoint x="250" y="230" />
              <mxPoint x="250" y="230" />
            </Array>
          </mxGeometry>
        </mxCell>
        <mxCell id="MqvOi7Ixa8ff-2-MyRss-92" style="edgeStyle=orthogonalEdgeStyle;rounded=0;orthogonalLoop=1;jettySize=auto;html=1;entryX=0.386;entryY=-0.001;entryDx=0;entryDy=0;entryPerimeter=0;strokeColor=#000000;fontSize=12;elbow=vertical;" edge="1" parent="MqvOi7Ixa8ff-2-MyRss-15" source="MqvOi7Ixa8ff-2-MyRss-13" target="MqvOi7Ixa8ff-2-MyRss-56">
          <mxGeometry relative="1" as="geometry">
            <Array as="points">
              <mxPoint x="297" y="250" />
              <mxPoint x="297" y="250" />
            </Array>
          </mxGeometry>
        </mxCell>
        <mxCell id="MqvOi7Ixa8ff-2-MyRss-13" value="In motion" style="rounded=0;whiteSpace=wrap;html=1;fontSize=14;" vertex="1" parent="MqvOi7Ixa8ff-2-MyRss-15">
          <mxGeometry x="267.5" y="200" width="85" height="35" as="geometry" />
        </mxCell>
        <mxCell id="MqvOi7Ixa8ff-2-MyRss-14" value="" style="edgeStyle=segmentEdgeStyle;endArrow=classic;html=1;rounded=0;entryX=0.5;entryY=0;entryDx=0;entryDy=0;exitX=0.5;exitY=0;exitDx=0;exitDy=0;strokeColor=#000000;fontSize=14;" edge="1" parent="MqvOi7Ixa8ff-2-MyRss-15" source="MqvOi7Ixa8ff-2-MyRss-12" target="MqvOi7Ixa8ff-2-MyRss-4">
          <mxGeometry width="50" height="50" relative="1" as="geometry">
            <mxPoint x="400" as="sourcePoint" />
            <mxPoint x="170" y="30" as="targetPoint" />
            <Array as="points">
              <mxPoint x="405" />
              <mxPoint x="165" />
            </Array>
          </mxGeometry>
        </mxCell>
        <mxCell id="MqvOi7Ixa8ff-2-MyRss-17" value="" style="edgeStyle=orthogonalEdgeStyle;html=1;verticalAlign=bottom;endArrow=open;endSize=8;strokeColor=#000000;rounded=0;exitX=1;exitY=0.5;exitDx=0;exitDy=0;entryX=0;entryY=0.5;entryDx=0;entryDy=0;fontSize=14;" edge="1" parent="MqvOi7Ixa8ff-2-MyRss-15" source="MqvOi7Ixa8ff-2-MyRss-4" target="MqvOi7Ixa8ff-2-MyRss-12">
          <mxGeometry relative="1" as="geometry">
            <mxPoint x="330" y="60" as="targetPoint" />
            <mxPoint x="250" y="60" as="sourcePoint" />
            <Array as="points" />
          </mxGeometry>
        </mxCell>
        <mxCell id="MqvOi7Ixa8ff-2-MyRss-18" value="&lt;font style=&quot;font-size: 12px;&quot;&gt;start&lt;/font&gt;" style="text;html=1;align=center;verticalAlign=middle;resizable=0;points=[];autosize=1;strokeColor=none;fillColor=none;fontSize=14;" vertex="1" parent="MqvOi7Ixa8ff-2-MyRss-15">
          <mxGeometry x="270" y="40" width="50" height="30" as="geometry" />
        </mxCell>
        <mxCell id="MqvOi7Ixa8ff-2-MyRss-19" value="" style="ellipse;html=1;shape=endState;fillColor=#000000;strokeColor=#ff0000;fontSize=14;" vertex="1" parent="MqvOi7Ixa8ff-2-MyRss-15">
          <mxGeometry x="10" y="130" width="30" height="30" as="geometry" />
        </mxCell>
        <mxCell id="MqvOi7Ixa8ff-2-MyRss-37" value="" style="edgeStyle=elbowEdgeStyle;elbow=vertical;endArrow=classic;html=1;rounded=0;strokeColor=#000000;exitX=0.5;exitY=1;exitDx=0;exitDy=0;entryX=0.75;entryY=0;entryDx=0;entryDy=0;fontSize=14;" edge="1" parent="MqvOi7Ixa8ff-2-MyRss-15" source="MqvOi7Ixa8ff-2-MyRss-12" target="MqvOi7Ixa8ff-2-MyRss-13">
          <mxGeometry width="50" height="50" relative="1" as="geometry">
            <mxPoint x="410" y="100" as="sourcePoint" />
            <mxPoint x="360" y="150" as="targetPoint" />
            <Array as="points">
              <mxPoint x="360" y="150" />
            </Array>
          </mxGeometry>
        </mxCell>
        <mxCell id="MqvOi7Ixa8ff-2-MyRss-40" value="" style="endArrow=classic;html=1;rounded=0;strokeColor=#000000;edgeStyle=orthogonalEdgeStyle;elbow=vertical;exitX=0.25;exitY=0;exitDx=0;exitDy=0;entryX=1;entryY=0.5;entryDx=0;entryDy=0;fontSize=14;" edge="1" parent="MqvOi7Ixa8ff-2-MyRss-15" source="MqvOi7Ixa8ff-2-MyRss-13" target="MqvOi7Ixa8ff-2-MyRss-11">
          <mxGeometry width="50" height="50" relative="1" as="geometry">
            <mxPoint x="300" y="180" as="sourcePoint" />
            <mxPoint x="260" y="160" as="targetPoint" />
            <Array as="points">
              <mxPoint x="290" y="200" />
              <mxPoint x="290" y="148" />
              <mxPoint x="260" y="148" />
            </Array>
          </mxGeometry>
        </mxCell>
        <mxCell id="MqvOi7Ixa8ff-2-MyRss-80" style="edgeStyle=orthogonalEdgeStyle;rounded=0;orthogonalLoop=1;jettySize=auto;html=1;entryX=0.615;entryY=0.983;entryDx=0;entryDy=0;entryPerimeter=0;strokeColor=#000000;elbow=vertical;fontSize=14;" edge="1" parent="MqvOi7Ixa8ff-2-MyRss-15" source="MqvOi7Ixa8ff-2-MyRss-56" target="MqvOi7Ixa8ff-2-MyRss-13">
          <mxGeometry relative="1" as="geometry">
            <Array as="points">
              <mxPoint x="320" y="268" />
            </Array>
          </mxGeometry>
        </mxCell>
        <mxCell id="MqvOi7Ixa8ff-2-MyRss-56" value="TSRS" style="swimlane;fontSize=14;" vertex="1" parent="MqvOi7Ixa8ff-2-MyRss-15">
          <mxGeometry x="210" y="300" width="225" height="370" as="geometry" />
        </mxCell>
        <mxCell id="MqvOi7Ixa8ff-2-MyRss-57" value="" style="ellipse;html=1;shape=startState;fillColor=#000000;strokeColor=#ff0000;fontSize=14;" vertex="1" parent="MqvOi7Ixa8ff-2-MyRss-56">
          <mxGeometry x="80" y="30" width="30" height="30" as="geometry" />
        </mxCell>
        <mxCell id="MqvOi7Ixa8ff-2-MyRss-58" value="" style="edgeStyle=orthogonalEdgeStyle;html=1;verticalAlign=bottom;endArrow=open;endSize=8;strokeColor=#ff0000;rounded=0;elbow=vertical;fontSize=14;" edge="1" parent="MqvOi7Ixa8ff-2-MyRss-56" source="MqvOi7Ixa8ff-2-MyRss-57">
          <mxGeometry relative="1" as="geometry">
            <mxPoint x="95" y="120" as="targetPoint" />
          </mxGeometry>
        </mxCell>
        <mxCell id="MqvOi7Ixa8ff-2-MyRss-59" style="edgeStyle=orthogonalEdgeStyle;rounded=0;orthogonalLoop=1;jettySize=auto;html=1;entryX=0.5;entryY=0;entryDx=0;entryDy=0;strokeColor=#000000;elbow=vertical;fontSize=14;" edge="1" parent="MqvOi7Ixa8ff-2-MyRss-56" source="MqvOi7Ixa8ff-2-MyRss-60" target="MqvOi7Ixa8ff-2-MyRss-62">
          <mxGeometry relative="1" as="geometry" />
        </mxCell>
        <mxCell id="MqvOi7Ixa8ff-2-MyRss-60" value="Initiate" style="rounded=0;whiteSpace=wrap;html=1;fontSize=14;" vertex="1" parent="MqvOi7Ixa8ff-2-MyRss-56">
          <mxGeometry x="50" y="120" width="90" height="35" as="geometry" />
        </mxCell>
        <mxCell id="MqvOi7Ixa8ff-2-MyRss-61" style="edgeStyle=orthogonalEdgeStyle;rounded=0;orthogonalLoop=1;jettySize=auto;html=1;entryX=0.5;entryY=0;entryDx=0;entryDy=0;strokeColor=#000000;elbow=vertical;fontSize=14;" edge="1" parent="MqvOi7Ixa8ff-2-MyRss-56" source="MqvOi7Ixa8ff-2-MyRss-62" target="MqvOi7Ixa8ff-2-MyRss-64">
          <mxGeometry relative="1" as="geometry" />
        </mxCell>
        <mxCell id="MqvOi7Ixa8ff-2-MyRss-62" value="Captured" style="rounded=0;whiteSpace=wrap;html=1;fontSize=14;" vertex="1" parent="MqvOi7Ixa8ff-2-MyRss-56">
          <mxGeometry x="50" y="180" width="90" height="35" as="geometry" />
        </mxCell>
        <mxCell id="MqvOi7Ixa8ff-2-MyRss-63" style="edgeStyle=orthogonalEdgeStyle;rounded=0;orthogonalLoop=1;jettySize=auto;html=1;entryX=0.5;entryY=0;entryDx=0;entryDy=0;strokeColor=#000000;elbow=vertical;fontSize=14;" edge="1" parent="MqvOi7Ixa8ff-2-MyRss-56" source="MqvOi7Ixa8ff-2-MyRss-64" target="MqvOi7Ixa8ff-2-MyRss-65">
          <mxGeometry relative="1" as="geometry">
            <mxPoint x="95" y="300" as="targetPoint" />
          </mxGeometry>
        </mxCell>
        <mxCell id="MqvOi7Ixa8ff-2-MyRss-64" value="Interpreted" style="rounded=0;whiteSpace=wrap;html=1;fontSize=14;" vertex="1" parent="MqvOi7Ixa8ff-2-MyRss-56">
          <mxGeometry x="50" y="240" width="90" height="35" as="geometry" />
        </mxCell>
        <mxCell id="MqvOi7Ixa8ff-2-MyRss-65" value="" style="ellipse;html=1;shape=endState;fillColor=#000000;strokeColor=#ff0000;fontSize=14;" vertex="1" parent="MqvOi7Ixa8ff-2-MyRss-56">
          <mxGeometry x="80" y="330" width="30" height="30" as="geometry" />
        </mxCell>
        <mxCell id="MqvOi7Ixa8ff-2-MyRss-81" value="&lt;font style=&quot;font-size: 12px;&quot;&gt;capture traffic sign&lt;/font&gt;" style="text;html=1;align=center;verticalAlign=middle;resizable=0;points=[];autosize=1;strokeColor=none;fillColor=none;fontSize=14;" vertex="1" parent="MqvOi7Ixa8ff-2-MyRss-56">
          <mxGeometry x="95" y="150" width="120" height="30" as="geometry" />
        </mxCell>
        <mxCell id="MqvOi7Ixa8ff-2-MyRss-85" value="&lt;font style=&quot;font-size: 12px;&quot;&gt;interpret the sign&lt;/font&gt;" style="text;html=1;align=center;verticalAlign=middle;resizable=0;points=[];autosize=1;strokeColor=none;fillColor=none;fontSize=14;" vertex="1" parent="MqvOi7Ixa8ff-2-MyRss-56">
          <mxGeometry x="90" y="215" width="110" height="30" as="geometry" />
        </mxCell>
        <mxCell id="MqvOi7Ixa8ff-2-MyRss-66" value="V2V Communication System" style="swimlane;fontSize=14;" vertex="1" parent="MqvOi7Ixa8ff-2-MyRss-15">
          <mxGeometry x="480" y="190" width="220" height="370" as="geometry" />
        </mxCell>
        <mxCell id="MqvOi7Ixa8ff-2-MyRss-67" value="" style="ellipse;html=1;shape=startState;fillColor=#000000;strokeColor=#ff0000;fontSize=14;" vertex="1" parent="MqvOi7Ixa8ff-2-MyRss-66">
          <mxGeometry x="80" y="30" width="30" height="30" as="geometry" />
        </mxCell>
        <mxCell id="MqvOi7Ixa8ff-2-MyRss-68" value="" style="edgeStyle=orthogonalEdgeStyle;html=1;verticalAlign=bottom;endArrow=open;endSize=8;strokeColor=#ff0000;rounded=0;elbow=vertical;fontSize=14;" edge="1" parent="MqvOi7Ixa8ff-2-MyRss-66" source="MqvOi7Ixa8ff-2-MyRss-67">
          <mxGeometry relative="1" as="geometry">
            <mxPoint x="95" y="120" as="targetPoint" />
          </mxGeometry>
        </mxCell>
        <mxCell id="MqvOi7Ixa8ff-2-MyRss-69" style="edgeStyle=orthogonalEdgeStyle;rounded=0;orthogonalLoop=1;jettySize=auto;html=1;entryX=0.5;entryY=0;entryDx=0;entryDy=0;strokeColor=#000000;elbow=vertical;fontSize=14;" edge="1" parent="MqvOi7Ixa8ff-2-MyRss-66" source="MqvOi7Ixa8ff-2-MyRss-70" target="MqvOi7Ixa8ff-2-MyRss-72">
          <mxGeometry relative="1" as="geometry" />
        </mxCell>
        <mxCell id="MqvOi7Ixa8ff-2-MyRss-70" value="Initiate" style="rounded=0;whiteSpace=wrap;html=1;fontSize=14;" vertex="1" parent="MqvOi7Ixa8ff-2-MyRss-66">
          <mxGeometry x="50" y="120" width="90" height="35" as="geometry" />
        </mxCell>
        <mxCell id="MqvOi7Ixa8ff-2-MyRss-71" style="edgeStyle=orthogonalEdgeStyle;rounded=0;orthogonalLoop=1;jettySize=auto;html=1;entryX=0.5;entryY=0;entryDx=0;entryDy=0;strokeColor=#000000;elbow=vertical;fontSize=14;" edge="1" parent="MqvOi7Ixa8ff-2-MyRss-66" source="MqvOi7Ixa8ff-2-MyRss-72" target="MqvOi7Ixa8ff-2-MyRss-74">
          <mxGeometry relative="1" as="geometry" />
        </mxCell>
        <mxCell id="MqvOi7Ixa8ff-2-MyRss-72" value="Data received" style="rounded=0;whiteSpace=wrap;html=1;fontSize=14;" vertex="1" parent="MqvOi7Ixa8ff-2-MyRss-66">
          <mxGeometry x="50" y="180" width="90" height="35" as="geometry" />
        </mxCell>
        <mxCell id="MqvOi7Ixa8ff-2-MyRss-73" style="edgeStyle=orthogonalEdgeStyle;rounded=0;orthogonalLoop=1;jettySize=auto;html=1;entryX=0.5;entryY=0;entryDx=0;entryDy=0;strokeColor=#000000;elbow=vertical;fontSize=14;" edge="1" parent="MqvOi7Ixa8ff-2-MyRss-66" source="MqvOi7Ixa8ff-2-MyRss-74" target="MqvOi7Ixa8ff-2-MyRss-75">
          <mxGeometry relative="1" as="geometry">
            <mxPoint x="95" y="300" as="targetPoint" />
          </mxGeometry>
        </mxCell>
        <mxCell id="MqvOi7Ixa8ff-2-MyRss-74" value="DB updated" style="rounded=0;whiteSpace=wrap;html=1;fontSize=14;" vertex="1" parent="MqvOi7Ixa8ff-2-MyRss-66">
          <mxGeometry x="50" y="240" width="90" height="35" as="geometry" />
        </mxCell>
        <mxCell id="MqvOi7Ixa8ff-2-MyRss-75" value="" style="ellipse;html=1;shape=endState;fillColor=#000000;strokeColor=#ff0000;fontSize=14;" vertex="1" parent="MqvOi7Ixa8ff-2-MyRss-66">
          <mxGeometry x="80" y="330" width="30" height="30" as="geometry" />
        </mxCell>
        <mxCell id="MqvOi7Ixa8ff-2-MyRss-86" value="&lt;font style=&quot;font-size: 12px;&quot;&gt;get data&lt;/font&gt;" style="text;html=1;align=center;verticalAlign=middle;resizable=0;points=[];autosize=1;strokeColor=none;fillColor=none;fontSize=14;" vertex="1" parent="MqvOi7Ixa8ff-2-MyRss-66">
          <mxGeometry x="90" y="150" width="70" height="30" as="geometry" />
        </mxCell>
        <mxCell id="MqvOi7Ixa8ff-2-MyRss-33" style="edgeStyle=orthogonalEdgeStyle;rounded=0;orthogonalLoop=1;jettySize=auto;html=1;strokeColor=#000000;exitX=1;exitY=0.25;exitDx=0;exitDy=0;entryX=0;entryY=0.057;entryDx=0;entryDy=0;entryPerimeter=0;fontSize=14;" edge="1" parent="MqvOi7Ixa8ff-2-MyRss-15" source="MqvOi7Ixa8ff-2-MyRss-13" target="MqvOi7Ixa8ff-2-MyRss-66">
          <mxGeometry relative="1" as="geometry">
            <mxPoint x="420" y="211" as="targetPoint" />
            <Array as="points">
              <mxPoint x="353" y="211" />
            </Array>
          </mxGeometry>
        </mxCell>
        <mxCell id="MqvOi7Ixa8ff-2-MyRss-90" value="&lt;font style=&quot;font-size: 12px;&quot;&gt;start the journey&lt;/font&gt;" style="text;html=1;align=center;verticalAlign=middle;resizable=0;points=[];autosize=1;strokeColor=none;fillColor=none;fontSize=14;" vertex="1" parent="MqvOi7Ixa8ff-2-MyRss-15">
          <mxGeometry x="340" y="150" width="110" height="30" as="geometry" />
        </mxCell>
        <mxCell id="MqvOi7Ixa8ff-2-MyRss-91" value="&lt;font style=&quot;font-size: 12px;&quot;&gt;Get to destination&lt;/font&gt;" style="text;html=1;align=center;verticalAlign=middle;resizable=0;points=[];autosize=1;strokeColor=none;fillColor=none;fontSize=14;" vertex="1" parent="MqvOi7Ixa8ff-2-MyRss-15">
          <mxGeometry x="180" y="160" width="120" height="30" as="geometry" />
        </mxCell>
        <mxCell id="MqvOi7Ixa8ff-2-MyRss-16" value="&lt;font style=&quot;font-size: 12px;&quot;&gt;fail&lt;/font&gt;" style="text;html=1;align=center;verticalAlign=middle;resizable=0;points=[];autosize=1;strokeColor=none;fillColor=none;fontSize=14;" vertex="1" parent="1">
          <mxGeometry x="340" y="55" width="40" height="30" as="geometry" />
        </mxCell>
      </root>
    </mxGraphModel>
  </diagram>
</mxfile>
